<?xml version="1.0" encoding="UTF-8" standalone="no"?>
<!DOCTYPE svg PUBLIC "-//W3C//DTD SVG 1.1//EN"
 "http://www.w3.org/Graphics/SVG/1.1/DTD/svg11.dtd">
<!-- Generated by graphviz version 2.36.0 (20140111.2315)
 -->
<!-- Title: G Pages: 1 -->
<svg width="758pt" height="332pt"
 viewBox="0.00 0.00 758.00 332.00" xmlns="http://www.w3.org/2000/svg" xmlns:xlink="http://www.w3.org/1999/xlink">
<g id="graph0" class="graph" transform="scale(1 1) rotate(0) translate(4 328)">
<title>G</title>
<polygon fill="white" stroke="none" points="-4,4 -4,-328 754,-328 754,4 -4,4"/>
<g id="clust1" class="cluster"><title>cluster_outlook</title>
<polygon fill="lightgrey" stroke="lightgrey" points="61,-208 61,-260 393,-260 393,-208 61,-208"/>
</g>
<g id="clust2" class="cluster"><title>cluster_humidity</title>
<polygon fill="lightgrey" stroke="lightgrey" points="307,-136 307,-188 561,-188 561,-136 307,-136"/>
</g>
<g id="clust3" class="cluster"><title>cluster_wind</title>
<polygon fill="lightgrey" stroke="lightgrey" points="8,-136 8,-188 232,-188 232,-136 8,-136"/>
</g>
<g id="clust4" class="cluster"><title>cluster_temperature</title>
<polygon fill="lightgrey" stroke="lightgrey" points="475,-64 475,-116 742,-116 742,-64 475,-64"/>
</g>
<!-- node_outlook_rainy -->
<g id="node1" class="node"><title>node_outlook_rainy</title>
<polygon fill="white" stroke="white" points="211,-252 157,-252 157,-216 211,-216 211,-252"/>
<text text-anchor="middle" x="184" y="-230.3" font-family="Times,serif" font-size="14.00">rainy</text>
</g>
<!-- node_wind_label -->
<g id="node10" class="node"><title>node_wind_label</title>
<polygon fill="#ffb347" stroke="#ffb347" points="70,-180 16,-180 16,-144 70,-144 70,-180"/>
<text text-anchor="middle" x="43" y="-158.3" font-family="Times,serif" font-size="14.00">wind</text>
</g>
<!-- node_outlook_rainy&#45;&gt;node_wind_label -->
<g id="edge1" class="edge"><title>node_outlook_rainy&#45;&gt;node_wind_label</title>
<path fill="none" stroke="black" d="M161.829,-215.955C157.401,-213.032 152.671,-210.225 148,-208 119.175,-194.269 107.825,-201.731 79,-188 77.2482,-187.166 75.4883,-186.249 73.7391,-185.276"/>
<polygon fill="black" stroke="black" points="75.5303,-182.269 65.1714,-180.045 71.8827,-188.243 75.5303,-182.269"/>
</g>
<!-- node_outlook_overcast -->
<g id="node2" class="node"><title>node_outlook_overcast</title>
<polygon fill="white" stroke="white" points="307,-252 229,-252 229,-216 307,-216 307,-252"/>
<text text-anchor="middle" x="268" y="-230.3" font-family="Times,serif" font-size="14.00">overcast</text>
</g>
<!-- node_outlook_overcast_end -->
<g id="node14" class="node"><title>node_outlook_overcast_end</title>
<polygon fill="none" stroke="black" points="296,-180 242,-180 242,-144 296,-144 296,-180"/>
<text text-anchor="middle" x="269" y="-158.3" font-family="Times,serif" font-size="14.00">yes</text>
</g>
<!-- node_outlook_overcast&#45;&gt;node_outlook_overcast_end -->
<g id="edge2" class="edge"><title>node_outlook_overcast&#45;&gt;node_outlook_overcast_end</title>
<path fill="none" stroke="black" d="M268.247,-215.697C268.357,-207.983 268.49,-198.712 268.613,-190.112"/>
<polygon fill="black" stroke="black" points="272.112,-190.153 268.756,-180.104 265.113,-190.053 272.112,-190.153"/>
</g>
<!-- node_outlook_sunny -->
<g id="node3" class="node"><title>node_outlook_sunny</title>
<polygon fill="white" stroke="white" points="384.25,-252 325.75,-252 325.75,-216 384.25,-216 384.25,-252"/>
<text text-anchor="middle" x="355" y="-230.3" font-family="Times,serif" font-size="14.00">sunny</text>
</g>
<!-- node_humidity_label -->
<g id="node7" class="node"><title>node_humidity_label</title>
<polygon fill="#ffb347" stroke="#ffb347" points="395,-180 315,-180 315,-144 395,-144 395,-180"/>
<text text-anchor="middle" x="355" y="-158.3" font-family="Times,serif" font-size="14.00">humidity</text>
</g>
<!-- node_outlook_sunny&#45;&gt;node_humidity_label -->
<g id="edge3" class="edge"><title>node_outlook_sunny&#45;&gt;node_humidity_label</title>
<path fill="none" stroke="black" d="M355,-215.697C355,-207.983 355,-198.712 355,-190.112"/>
<polygon fill="black" stroke="black" points="358.5,-190.104 355,-180.104 351.5,-190.104 358.5,-190.104"/>
</g>
<!-- node_outlook_label -->
<g id="node4" class="node"><title>node_outlook_label</title>
<polygon fill="#ffb347" stroke="#ffb347" points="139,-252 69,-252 69,-216 139,-216 139,-252"/>
<text text-anchor="middle" x="104" y="-230.3" font-family="Times,serif" font-size="14.00">outlook</text>
</g>
<!-- node_humidity_normal -->
<g id="node5" class="node"><title>node_humidity_normal</title>
<polygon fill="white" stroke="white" points="480.25,-180 413.75,-180 413.75,-144 480.25,-144 480.25,-180"/>
<text text-anchor="middle" x="447" y="-158.3" font-family="Times,serif" font-size="14.00">normal</text>
</g>
<!-- node_humidity_normal_end -->
<g id="node15" class="node"><title>node_humidity_normal_end</title>
<polygon fill="none" stroke="black" points="464,-108 410,-108 410,-72 464,-72 464,-108"/>
<text text-anchor="middle" x="437" y="-86.3" font-family="Times,serif" font-size="14.00">yes</text>
</g>
<!-- node_humidity_normal&#45;&gt;node_humidity_normal_end -->
<g id="edge4" class="edge"><title>node_humidity_normal&#45;&gt;node_humidity_normal_end</title>
<path fill="none" stroke="black" d="M444.528,-143.697C443.426,-135.983 442.102,-126.712 440.873,-118.112"/>
<polygon fill="black" stroke="black" points="444.323,-117.509 439.443,-108.104 437.393,-118.499 444.323,-117.509"/>
</g>
<!-- node_humidity_high -->
<g id="node6" class="node"><title>node_humidity_high</title>
<polygon fill="white" stroke="white" points="553,-180 499,-180 499,-144 553,-144 553,-180"/>
<text text-anchor="middle" x="526" y="-158.3" font-family="Times,serif" font-size="14.00">high</text>
</g>
<!-- node_temperature_label -->
<g id="node13" class="node"><title>node_temperature_label</title>
<polygon fill="#ffb347" stroke="#ffb347" points="589.25,-108 482.75,-108 482.75,-72 589.25,-72 589.25,-108"/>
<text text-anchor="middle" x="536" y="-86.3" font-family="Times,serif" font-size="14.00">temperature</text>
</g>
<!-- node_humidity_high&#45;&gt;node_temperature_label -->
<g id="edge5" class="edge"><title>node_humidity_high&#45;&gt;node_temperature_label</title>
<path fill="none" stroke="black" d="M528.472,-143.697C529.574,-135.983 530.898,-126.712 532.127,-118.112"/>
<polygon fill="black" stroke="black" points="535.607,-118.499 533.557,-108.104 528.677,-117.509 535.607,-118.499"/>
</g>
<!-- node_wind_strong -->
<g id="node8" class="node"><title>node_wind_strong</title>
<polygon fill="white" stroke="white" points="151.25,-180 88.75,-180 88.75,-144 151.25,-144 151.25,-180"/>
<text text-anchor="middle" x="120" y="-158.3" font-family="Times,serif" font-size="14.00">strong</text>
</g>
<!-- node_wind_strong_end -->
<g id="node16" class="node"><title>node_wind_strong_end</title>
<polygon fill="none" stroke="black" points="147,-108 93,-108 93,-72 147,-72 147,-108"/>
<text text-anchor="middle" x="120" y="-86.3" font-family="Times,serif" font-size="14.00">no</text>
</g>
<!-- node_wind_strong&#45;&gt;node_wind_strong_end -->
<g id="edge6" class="edge"><title>node_wind_strong&#45;&gt;node_wind_strong_end</title>
<path fill="none" stroke="black" d="M120,-143.697C120,-135.983 120,-126.712 120,-118.112"/>
<polygon fill="black" stroke="black" points="123.5,-118.104 120,-108.104 116.5,-118.104 123.5,-118.104"/>
</g>
<!-- node_wind_weak -->
<g id="node9" class="node"><title>node_wind_weak</title>
<polygon fill="white" stroke="white" points="224,-180 170,-180 170,-144 224,-144 224,-180"/>
<text text-anchor="middle" x="197" y="-158.3" font-family="Times,serif" font-size="14.00">weak</text>
</g>
<!-- node_wind_weak_end -->
<g id="node17" class="node"><title>node_wind_weak_end</title>
<polygon fill="none" stroke="black" points="224,-108 170,-108 170,-72 224,-72 224,-108"/>
<text text-anchor="middle" x="197" y="-86.3" font-family="Times,serif" font-size="14.00">yes</text>
</g>
<!-- node_wind_weak&#45;&gt;node_wind_weak_end -->
<g id="edge7" class="edge"><title>node_wind_weak&#45;&gt;node_wind_weak_end</title>
<path fill="none" stroke="black" d="M197,-143.697C197,-135.983 197,-126.712 197,-118.112"/>
<polygon fill="black" stroke="black" points="200.5,-118.104 197,-108.104 193.5,-118.104 200.5,-118.104"/>
</g>
<!-- node_temperature_low -->
<g id="node11" class="node"><title>node_temperature_low</title>
<polygon fill="white" stroke="white" points="662,-108 608,-108 608,-72 662,-72 662,-108"/>
<text text-anchor="middle" x="635" y="-86.3" font-family="Times,serif" font-size="14.00">low</text>
</g>
<!-- node_temperature_low_end -->
<g id="node18" class="node"><title>node_temperature_low_end</title>
<polygon fill="none" stroke="black" points="662,-36 608,-36 608,-0 662,-0 662,-36"/>
<text text-anchor="middle" x="635" y="-14.3" font-family="Times,serif" font-size="14.00">yes</text>
</g>
<!-- node_temperature_low&#45;&gt;node_temperature_low_end -->
<g id="edge8" class="edge"><title>node_temperature_low&#45;&gt;node_temperature_low_end</title>
<path fill="none" stroke="black" d="M635,-71.6966C635,-63.9827 635,-54.7125 635,-46.1124"/>
<polygon fill="black" stroke="black" points="638.5,-46.1043 635,-36.1043 631.5,-46.1044 638.5,-46.1043"/>
</g>
<!-- node_temperature_high -->
<g id="node12" class="node"><title>node_temperature_high</title>
<polygon fill="white" stroke="white" points="734,-108 680,-108 680,-72 734,-72 734,-108"/>
<text text-anchor="middle" x="707" y="-86.3" font-family="Times,serif" font-size="14.00">high</text>
</g>
<!-- node_temperature_high_end -->
<g id="node19" class="node"><title>node_temperature_high_end</title>
<polygon fill="none" stroke="black" points="734,-36 680,-36 680,-0 734,-0 734,-36"/>
<text text-anchor="middle" x="707" y="-14.3" font-family="Times,serif" font-size="14.00">no</text>
</g>
<!-- node_temperature_high&#45;&gt;node_temperature_high_end -->
<g id="edge9" class="edge"><title>node_temperature_high&#45;&gt;node_temperature_high_end</title>
<path fill="none" stroke="black" d="M707,-71.6966C707,-63.9827 707,-54.7125 707,-46.1124"/>
<polygon fill="black" stroke="black" points="710.5,-46.1043 707,-36.1043 703.5,-46.1044 710.5,-46.1043"/>
</g>
<!-- start -->
<g id="node20" class="node"><title>start</title>
<polygon fill="#bdecb6" stroke="#bdecb6" points="131,-324 77,-324 77,-288 131,-288 131,-324"/>
<text text-anchor="middle" x="104" y="-302.3" font-family="Times,serif" font-size="14.00">start</text>
</g>
<!-- start&#45;&gt;node_outlook_label -->
<g id="edge10" class="edge"><title>start&#45;&gt;node_outlook_label</title>
<path fill="none" stroke="black" d="M104,-287.697C104,-279.983 104,-270.712 104,-262.112"/>
<polygon fill="black" stroke="black" points="107.5,-262.104 104,-252.104 100.5,-262.104 107.5,-262.104"/>
</g>
</g>
</svg>
