<?xml version="1.0" encoding="UTF-8" standalone="no"?>
<!DOCTYPE svg PUBLIC "-//W3C//DTD SVG 1.1//EN"
 "http://www.w3.org/Graphics/SVG/1.1/DTD/svg11.dtd">
<!-- Generated by graphviz version 2.36.0 (20140111.2315)
 -->
<!-- Title: G Pages: 1 -->
<svg width="708pt" height="332pt"
 viewBox="0.00 0.00 708.00 332.00" xmlns="http://www.w3.org/2000/svg" xmlns:xlink="http://www.w3.org/1999/xlink">
<g id="graph0" class="graph" transform="scale(1 1) rotate(0) translate(4 328)">
<title>G</title>
<polygon fill="white" stroke="none" points="-4,4 -4,-328 704,-328 704,4 -4,4"/>
<g id="clust1" class="cluster"><title>cluster_outlook</title>
<polygon fill="lightgrey" stroke="lightgrey" points="69,-208 69,-260 371,-260 371,-208 69,-208"/>
</g>
<g id="clust2" class="cluster"><title>cluster_humidity</title>
<polygon fill="lightgrey" stroke="lightgrey" points="296,-136 296,-188 526,-188 526,-136 296,-136"/>
</g>
<g id="clust3" class="cluster"><title>cluster_wind</title>
<polygon fill="lightgrey" stroke="lightgrey" points="8,-136 8,-188 222,-188 222,-136 8,-136"/>
</g>
<g id="clust4" class="cluster"><title>cluster_temperature</title>
<polygon fill="lightgrey" stroke="lightgrey" points="448,-64 448,-116 692,-116 692,-64 448,-64"/>
</g>
<!-- node_outlook_rainy -->
<g id="node1" class="node"><title>node_outlook_rainy</title>
<polygon fill="white" stroke="white" points="209,-252 155,-252 155,-216 209,-216 209,-252"/>
<text text-anchor="middle" x="182" y="-230.3" font-family="Times,serif" font-size="14.00">rainy</text>
</g>
<!-- node_wind_label -->
<g id="node10" class="node"><title>node_wind_label</title>
<polygon fill="#ffb347" stroke="#ffb347" points="70,-180 16,-180 16,-144 70,-144 70,-180"/>
<text text-anchor="middle" x="43" y="-158.3" font-family="Times,serif" font-size="14.00">wind</text>
</g>
<!-- node_outlook_rainy&#45;&gt;node_wind_label -->
<g id="edge1" class="edge"><title>node_outlook_rainy&#45;&gt;node_wind_label</title>
<path fill="none" stroke="black" d="M158.745,-215.762C154.317,-212.926 149.62,-210.199 145,-208 117.324,-194.828 106.591,-201.349 79,-188 77.446,-187.248 75.8847,-186.433 74.3295,-185.572"/>
<polygon fill="black" stroke="black" points="75.9479,-182.46 65.5846,-180.257 72.3123,-188.442 75.9479,-182.46"/>
</g>
<!-- node_outlook_overcast -->
<g id="node2" class="node"><title>node_outlook_overcast</title>
<polygon fill="white" stroke="white" points="290.25,-252 227.75,-252 227.75,-216 290.25,-216 290.25,-252"/>
<text text-anchor="middle" x="259" y="-230.3" font-family="Times,serif" font-size="14.00">overcast</text>
</g>
<!-- node_outlook_overcast_end -->
<g id="node14" class="node"><title>node_outlook_overcast_end</title>
<polygon fill="none" stroke="black" points="286,-180 232,-180 232,-144 286,-144 286,-180"/>
<text text-anchor="middle" x="259" y="-158.3" font-family="Times,serif" font-size="14.00">end</text>
</g>
<!-- node_outlook_overcast&#45;&gt;node_outlook_overcast_end -->
<g id="edge2" class="edge"><title>node_outlook_overcast&#45;&gt;node_outlook_overcast_end</title>
<path fill="none" stroke="black" d="M259,-215.697C259,-207.983 259,-198.712 259,-190.112"/>
<polygon fill="black" stroke="black" points="262.5,-190.104 259,-180.104 255.5,-190.104 262.5,-190.104"/>
</g>
<!-- node_outlook_sunny -->
<g id="node3" class="node"><title>node_outlook_sunny</title>
<polygon fill="white" stroke="white" points="363,-252 309,-252 309,-216 363,-216 363,-252"/>
<text text-anchor="middle" x="336" y="-230.3" font-family="Times,serif" font-size="14.00">sunny</text>
</g>
<!-- node_humidity_label -->
<g id="node7" class="node"><title>node_humidity_label</title>
<polygon fill="#ffb347" stroke="#ffb347" points="371.25,-180 304.75,-180 304.75,-144 371.25,-144 371.25,-180"/>
<text text-anchor="middle" x="338" y="-158.3" font-family="Times,serif" font-size="14.00">humidity</text>
</g>
<!-- node_outlook_sunny&#45;&gt;node_humidity_label -->
<g id="edge3" class="edge"><title>node_outlook_sunny&#45;&gt;node_humidity_label</title>
<path fill="none" stroke="black" d="M336.494,-215.697C336.715,-207.983 336.98,-198.712 337.225,-190.112"/>
<polygon fill="black" stroke="black" points="340.724,-190.2 337.511,-180.104 333.727,-190 340.724,-190.2"/>
</g>
<!-- node_outlook_label -->
<g id="node4" class="node"><title>node_outlook_label</title>
<polygon fill="#ffb347" stroke="#ffb347" points="136.25,-252 77.75,-252 77.75,-216 136.25,-216 136.25,-252"/>
<text text-anchor="middle" x="107" y="-230.3" font-family="Times,serif" font-size="14.00">outlook</text>
</g>
<!-- node_humidity_normal -->
<g id="node5" class="node"><title>node_humidity_normal</title>
<polygon fill="white" stroke="white" points="446,-180 390,-180 390,-144 446,-144 446,-180"/>
<text text-anchor="middle" x="418" y="-158.3" font-family="Times,serif" font-size="14.00">normal</text>
</g>
<!-- node_humidity_normal_end -->
<g id="node15" class="node"><title>node_humidity_normal_end</title>
<polygon fill="none" stroke="black" points="438,-108 384,-108 384,-72 438,-72 438,-108"/>
<text text-anchor="middle" x="411" y="-86.3" font-family="Times,serif" font-size="14.00">end</text>
</g>
<!-- node_humidity_normal&#45;&gt;node_humidity_normal_end -->
<g id="edge4" class="edge"><title>node_humidity_normal&#45;&gt;node_humidity_normal_end</title>
<path fill="none" stroke="black" d="M416.27,-143.697C415.498,-135.983 414.571,-126.712 413.711,-118.112"/>
<polygon fill="black" stroke="black" points="417.188,-117.706 412.71,-108.104 410.223,-118.403 417.188,-117.706"/>
</g>
<!-- node_humidity_high -->
<g id="node6" class="node"><title>node_humidity_high</title>
<polygon fill="white" stroke="white" points="518,-180 464,-180 464,-144 518,-144 518,-180"/>
<text text-anchor="middle" x="491" y="-158.3" font-family="Times,serif" font-size="14.00">high</text>
</g>
<!-- node_temperature_label -->
<g id="node13" class="node"><title>node_temperature_label</title>
<polygon fill="#ffb347" stroke="#ffb347" points="539.25,-108 456.75,-108 456.75,-72 539.25,-72 539.25,-108"/>
<text text-anchor="middle" x="498" y="-86.3" font-family="Times,serif" font-size="14.00">temperature</text>
</g>
<!-- node_humidity_high&#45;&gt;node_temperature_label -->
<g id="edge5" class="edge"><title>node_humidity_high&#45;&gt;node_temperature_label</title>
<path fill="none" stroke="black" d="M492.73,-143.697C493.502,-135.983 494.429,-126.712 495.289,-118.112"/>
<polygon fill="black" stroke="black" points="498.777,-118.403 496.29,-108.104 491.812,-117.706 498.777,-118.403"/>
</g>
<!-- node_wind_strong -->
<g id="node8" class="node"><title>node_wind_strong</title>
<polygon fill="white" stroke="white" points="142,-180 88,-180 88,-144 142,-144 142,-180"/>
<text text-anchor="middle" x="115" y="-158.3" font-family="Times,serif" font-size="14.00">strong</text>
</g>
<!-- node_wind_strong_end -->
<g id="node16" class="node"><title>node_wind_strong_end</title>
<polygon fill="none" stroke="black" points="142,-108 88,-108 88,-72 142,-72 142,-108"/>
<text text-anchor="middle" x="115" y="-86.3" font-family="Times,serif" font-size="14.00">end</text>
</g>
<!-- node_wind_strong&#45;&gt;node_wind_strong_end -->
<g id="edge6" class="edge"><title>node_wind_strong&#45;&gt;node_wind_strong_end</title>
<path fill="none" stroke="black" d="M115,-143.697C115,-135.983 115,-126.712 115,-118.112"/>
<polygon fill="black" stroke="black" points="118.5,-118.104 115,-108.104 111.5,-118.104 118.5,-118.104"/>
</g>
<!-- node_wind_weak -->
<g id="node9" class="node"><title>node_wind_weak</title>
<polygon fill="white" stroke="white" points="214,-180 160,-180 160,-144 214,-144 214,-180"/>
<text text-anchor="middle" x="187" y="-158.3" font-family="Times,serif" font-size="14.00">weak</text>
</g>
<!-- node_wind_weak_end -->
<g id="node17" class="node"><title>node_wind_weak_end</title>
<polygon fill="none" stroke="black" points="214,-108 160,-108 160,-72 214,-72 214,-108"/>
<text text-anchor="middle" x="187" y="-86.3" font-family="Times,serif" font-size="14.00">end</text>
</g>
<!-- node_wind_weak&#45;&gt;node_wind_weak_end -->
<g id="edge7" class="edge"><title>node_wind_weak&#45;&gt;node_wind_weak_end</title>
<path fill="none" stroke="black" d="M187,-143.697C187,-135.983 187,-126.712 187,-118.112"/>
<polygon fill="black" stroke="black" points="190.5,-118.104 187,-108.104 183.5,-118.104 190.5,-118.104"/>
</g>
<!-- node_temperature_low -->
<g id="node11" class="node"><title>node_temperature_low</title>
<polygon fill="white" stroke="white" points="612,-108 558,-108 558,-72 612,-72 612,-108"/>
<text text-anchor="middle" x="585" y="-86.3" font-family="Times,serif" font-size="14.00">low</text>
</g>
<!-- node_temperature_low_end -->
<g id="node18" class="node"><title>node_temperature_low_end</title>
<polygon fill="none" stroke="black" points="612,-36 558,-36 558,-0 612,-0 612,-36"/>
<text text-anchor="middle" x="585" y="-14.3" font-family="Times,serif" font-size="14.00">end</text>
</g>
<!-- node_temperature_low&#45;&gt;node_temperature_low_end -->
<g id="edge8" class="edge"><title>node_temperature_low&#45;&gt;node_temperature_low_end</title>
<path fill="none" stroke="black" d="M585,-71.6966C585,-63.9827 585,-54.7125 585,-46.1124"/>
<polygon fill="black" stroke="black" points="588.5,-46.1043 585,-36.1043 581.5,-46.1044 588.5,-46.1043"/>
</g>
<!-- node_temperature_high -->
<g id="node12" class="node"><title>node_temperature_high</title>
<polygon fill="white" stroke="white" points="684,-108 630,-108 630,-72 684,-72 684,-108"/>
<text text-anchor="middle" x="657" y="-86.3" font-family="Times,serif" font-size="14.00">high</text>
</g>
<!-- node_temperature_high_end -->
<g id="node19" class="node"><title>node_temperature_high_end</title>
<polygon fill="none" stroke="black" points="684,-36 630,-36 630,-0 684,-0 684,-36"/>
<text text-anchor="middle" x="657" y="-14.3" font-family="Times,serif" font-size="14.00">end</text>
</g>
<!-- node_temperature_high&#45;&gt;node_temperature_high_end -->
<g id="edge9" class="edge"><title>node_temperature_high&#45;&gt;node_temperature_high_end</title>
<path fill="none" stroke="black" d="M657,-71.6966C657,-63.9827 657,-54.7125 657,-46.1124"/>
<polygon fill="black" stroke="black" points="660.5,-46.1043 657,-36.1043 653.5,-46.1044 660.5,-46.1043"/>
</g>
<!-- start -->
<g id="node20" class="node"><title>start</title>
<polygon fill="#bdecb6" stroke="#bdecb6" points="134,-324 80,-324 80,-288 134,-288 134,-324"/>
<text text-anchor="middle" x="107" y="-302.3" font-family="Times,serif" font-size="14.00">start</text>
</g>
<!-- start&#45;&gt;node_outlook_label -->
<g id="edge10" class="edge"><title>start&#45;&gt;node_outlook_label</title>
<path fill="none" stroke="black" d="M107,-287.697C107,-279.983 107,-270.712 107,-262.112"/>
<polygon fill="black" stroke="black" points="110.5,-262.104 107,-252.104 103.5,-262.104 110.5,-262.104"/>
</g>
</g>
</svg>
